PathFileType	4	(X/Y/Z)	 s09c0203.trc
DataRate	CameraRate	NumFrames	NumMarkers	Units	OrigDataRate	OrigDataStartFrame	OrigNumFrames
200	200	4	50	mm	200	1501	2000
Frame#	Time	racr			lacr			c7			jug			rlel			rdr			llel			ldr			s2			lic			ric			lasi			rasi			rpsi			lpsi			rgt			lgt			rth1			rth2			rth3			rth4			rlfc			rmfc			rsh1			rsh2			rsh3			rsh4			rlmal			rmmal			rcal			rtoe			rmt5			lth1			lth2			lth4			lth3			llfc			lmfc			llmal			lmmal			lcal			lmt5			lsh1			lsh2			lsh3			lsh4			ltoe			SBIKE			LBIKE			RBIKE			
		X1	Y1	Z1	X2	Y2	Z2	X3	Y3	Z3	X4	Y4	Z4	X5	Y5	Z5	X6	Y6	Z6	X7	Y7	Z7	X8	Y8	Z8	X9	Y9	Z9	X10	Y10	Z10	X11	Y11	Z11	X12	Y12	Z12	X13	Y13	Z13	X14	Y14	Z14	X15	Y15	Z15	X16	Y16	Z16	X17	Y17	Z17	X18	Y18	Z18	X19	Y19	Z19	X20	Y20	Z20	X21	Y21	Z21	X22	Y22	Z22	X23	Y23	Z23	X24	Y24	Z24	X25	Y25	Z25	X26	Y26	Z26	X27	Y27	Z27	X28	Y28	Z28	X29	Y29	Z29	X30	Y30	Z30	X31	Y31	Z31	X32	Y32	Z32	X33	Y33	Z33	X34	Y34	Z34	X35	Y35	Z35	X36	Y36	Z36	X37	Y37	Z37	X38	Y38	Z38	X39	Y39	Z39	X40	Y40	Z40	X41	Y41	Z41	X42	Y42	Z42	X43	Y43	Z43	X44	Y44	Z44	X45	Y45	Z45	X46	Y46	Z46	X47	Y47	Z47	X48	Y48	Z48	X49	Y49	Z49	X50	Y50	Z50	
1501	7.5050	518.534521	1217.572651	-65.875144	476.886139	1206.700919	-421.639167	494.611015	1293.759153	-237.969423	457.798861	1161.792900	-237.617994	491.716410	1013.439778	86.138544	682.771823	905.929030	-17.760306	419.487675	945.344102	-515.143439	659.125421	905.089024	-445.156939	5.594919	1110.554314	-179.774994	121.462067	1141.014619	-343.072070	158.642000	1095.340369	-44.650890	172.956058	1087.890283	-327.805163	202.685982	1050.846446	-77.779988	40.425121	1133.302766	-119.618410	26.593182	1155.055141	-225.168600	135.008860	944.189435	-24.775327	115.715353	1039.573080	-392.478475	211.058339	834.419844	-40.536786	271.552712	771.991097	-54.946861	286.785731	686.034817	-71.089778	298.430529	788.068471	-75.194165	321.980056	600.524124	-105.048334	292.573729	578.043716	-199.323727	286.682645	505.185780	-68.143750	298.165013	417.040073	-81.951930	265.354290	335.841221	-78.218084	320.450436	417.085552	-114.952219	248.840798	231.807359	-74.281872	243.852049	243.490771	-151.528070	173.685640	198.604265	-108.991188	436.842240	176.717615	-133.023723	357.566386	162.789963	-62.298731	247.376646	982.572008	-400.250908	331.309866	972.583982	-390.335562	342.989174	999.372969	-364.952134	405.041554	920.181216	-398.131873	476.332965	846.061074	-385.083777	485.066501	818.578057	-287.169388	201.909313	607.809143	-407.703597	213.800103	605.698396	-333.649359	117.831431	607.841237	-368.920035	242.939561	482.546111	-428.247310	404.742064	781.787104	-410.006414	353.439711	711.581871	-404.053133	271.955005	676.075859	-405.875811	371.436040	691.200995	-376.351887	327.410050	453.497262	-358.514973	-64.396596	851.858958	-235.985648	21.028373	85.882386	-441.869903	21.194789	84.119199	-43.470397	
1502	7.5100	520.530544	1215.844723	-68.102086	474.118414	1208.374243	-424.739892	494.327728	1293.352051	-239.472664	457.436800	1161.606030	-239.725134	493.334173	1013.022940	84.547215	683.912814	906.221599	-17.953543	419.671742	945.260100	-515.887865	659.115292	905.102879	-444.697212	6.047862	1110.978659	-175.570080	119.781823	1142.655971	-341.048332	161.590946	1093.810364	-43.838631	171.282131	1089.223834	-327.307954	204.535535	1049.483037	-78.281152	42.234167	1132.912434	-116.494430	26.213792	1155.367415	-222.077455	137.727337	943.168173	-23.295847	113.847780	1042.769186	-391.513441	211.785583	834.462005	-40.703022	271.516781	771.555807	-55.009358	285.808540	685.232682	-71.229954	298.330849	787.127316	-76.037207	319.665051	598.972867	-105.320407	287.889742	577.479250	-199.493819	283.165982	504.046667	-68.334179	293.375611	415.811866	-82.222611	259.516551	335.158121	-78.304192	315.527231	415.574297	-115.334868	241.420770	231.484467	-74.234252	236.827156	242.892947	-151.545462	165.336730	199.979116	-108.927050	428.108055	170.792874	-132.974665	348.416568	159.277792	-62.377625	246.284318	988.871502	-399.491734	330.373846	980.169453	-389.486883	341.380322	1006.723776	-363.426893	404.752653	929.646051	-398.539682	477.708943	855.859491	-386.113347	487.820266	827.923686	-288.223282	208.867833	610.536976	-408.098182	220.825278	610.402384	-333.617508	124.510201	608.842283	-369.381004	252.553939	486.526711	-428.493138	407.580690	790.127388	-410.725843	357.898213	718.618411	-405.042470	277.309159	681.069607	-406.541571	376.798863	698.537876	-377.695117	337.630625	459.413164	-358.753415	-64.467331	851.831521	-236.133276	21.031655	85.839076	-441.878147	21.223354	84.136340	-43.485017	
1503	7.5150	522.504592	1214.485360	-70.624777	471.507126	1209.993648	-427.716800	494.811207	1292.930457	-241.577728	456.690508	1161.733813	-241.959969	494.770920	1012.643865	82.915265	684.795053	906.390036	-17.679035	419.884235	945.394875	-516.693697	659.126889	905.053339	-444.485730	6.518641	1111.071589	-172.583891	118.135311	1144.379928	-339.164858	164.262045	1092.571810	-43.316369	169.514895	1090.512483	-326.916006	206.178895	1048.416048	-78.814556	43.893289	1132.821597	-113.808474	25.553440	1156.534268	-218.102121	140.332886	942.459507	-22.434794	112.097254	1045.888678	-390.389296	212.622423	834.713823	-40.918816	271.805990	771.474663	-55.277101	285.428748	684.949801	-71.336260	298.377657	786.678585	-76.986672	318.028584	597.580495	-105.231778	285.702935	577.022171	-199.865902	280.200655	503.556336	-68.606972	289.050253	415.218700	-82.606163	254.012784	334.963211	-78.492477	311.023039	414.494957	-115.759946	234.117301	231.883943	-74.260488	230.000264	242.991641	-151.708207	157.553284	202.629183	-109.031997	419.147777	165.311522	-132.919248	339.212945	156.563287	-62.420566	244.849398	994.971511	-398.737432	328.769140	987.355543	-388.816256	339.554137	1013.626596	-362.063918	404.107136	938.499855	-398.749757	478.524578	865.104920	-387.056805	489.974842	836.729420	-289.103595	215.745844	612.496617	-408.476822	227.156819	612.826777	-334.009769	131.111767	609.008063	-369.886557	262.149844	489.732896	-428.512202	409.842728	797.573072	-411.500184	362.013969	724.799419	-405.965144	282.520072	685.035097	-407.094847	381.590874	705.072156	-379.094867	348.185120	465.047596	-359.210134	-64.535619	851.797911	-236.296411	21.012318	85.792925	-441.894303	21.228596	84.146271	-43.489803	
1504	7.5200	524.395281	1212.963558	-73.233358	469.155543	1211.491529	-430.470025	495.317688	1292.476251	-243.641872	456.042852	1161.820035	-244.285626	495.921536	1012.303961	81.391938	685.556713	906.421541	-17.050210	420.016562	945.603379	-517.619968	659.128856	905.084982	-444.583698	6.510225	1112.777559	-168.685592	116.709731	1146.126917	-337.622920	166.681017	1091.719115	-42.965200	167.804110	1091.723915	-326.456180	207.629050	1047.573907	-79.251105	45.265066	1132.964384	-111.406549	25.496729	1157.606595	-214.600167	142.590273	942.311942	-21.870080	110.348273	1048.750494	-389.031232	213.626594	835.188107	-41.084956	272.462124	771.663012	-55.781783	285.596220	685.003688	-71.522036	298.796553	786.691581	-77.818772	316.074091	597.035817	-106.103086	284.829230	577.120765	-200.370826	277.945572	503.550155	-68.974958	285.149442	414.898013	-83.021338	248.789436	335.463022	-78.730712	307.111600	413.967490	-116.221035	227.042747	233.064496	-74.309617	223.096919	243.837377	-151.853003	149.786662	205.965441	-109.074436	409.990270	160.342565	-132.901858	329.826936	154.219841	-62.467542	243.248396	1000.628466	-397.982139	326.753154	994.334702	-388.591310	337.562815	1020.041566	-360.801002	402.772956	946.688786	-399.136648	478.992441	873.887521	-387.996914	491.161831	845.382031	-289.772479	222.475070	613.934733	-409.233418	234.311059	614.549705	-334.937553	137.482361	608.067695	-370.384044	271.987316	492.225070	-428.839523	411.738918	804.110730	-412.247213	365.908169	730.063058	-406.776174	287.467226	688.219398	-407.741073	386.143348	710.675673	-380.141357	358.778383	469.909245	-359.371991	-64.591999	851.762795	-236.448972	21.024562	85.860735	-441.845674	21.229399	84.158723	-43.498640	
